<svg width="64" height="64" viewBox="0 0 64 64" fill="none" xmlns="http://www.w3.org/2000/svg">
<path d="M34.5 43.5H36.3541L37.1833 41.8416L38.7361 38.7361L40.1063 38.051L42.7232 38.2379L42.2411 40.1662L38.3933 45.1683L31.8473 45.9384L25.9367 43.8275L21.5 40.5V34.5V27.9868L23.5497 21.8377L28 18.5H34.7918L39.7229 20.9656L43.2574 24.5H39.3613L36.7577 21.5245L35.2315 19.7802L33.1584 20.8167L29.1584 22.8167L28.8741 22.9589L28.6259 23.1574L26.1259 25.1574L25.3007 25.8176L25.0714 26.8492L24.0908 31.2619L23.1154 34.6758L22.6037 36.4668L23.982 37.7198L29.482 42.7198L30.3402 43.5H31.5H34.5Z" stroke="white" stroke-width="6"/>
<path d="M32 2C15.432 2 2 15.432 2 32C2 48.568 15.432 62 32 62C48.568 62 62 48.568 62 32C62 15.432 48.568 2 32 2ZM27.408 39.521C28.724 41.142 30.396 41.952 32.426 41.952C34.504 41.952 36.09 41.257 37.182 39.866C37.786 39.118 38.286 37.996 38.684 36.5H44.707C44.187 39.663 42.859 42.235 40.725 44.217C38.588 46.198 35.854 47.189 32.516 47.189C28.387 47.189 25.141 45.851 22.78 43.173C20.417 40.484 19.235 36.795 19.235 32.11C19.235 27.044 20.579 23.139 23.266 20.397C25.604 18.008 28.577 16.814 32.186 16.814C37.016 16.814 40.547 18.415 42.78 21.618C44.014 23.416 44.676 25.22 44.766 27.031H38.703C38.316 25.639 37.822 24.591 37.219 23.882C36.139 22.622 34.537 21.991 32.416 21.991C30.256 21.991 28.553 22.881 27.305 24.659C26.059 26.437 25.436 28.954 25.436 32.208C25.436 35.462 26.094 37.899 27.408 39.521" fill="black"/>
</svg>
